<svg width="54" height="44" viewBox="0 0 54 44" fill="none" xmlns="http://www.w3.org/2000/svg">
<path d="M28.293 42.6665H23.1263C13.4166 42.6665 8.56181 42.6665 5.32056 40.1067C4.80215 39.6973 4.32271 39.2461 3.8877 38.7581C1.16797 35.7075 1.16797 31.1383 1.16797 21.9998C1.16797 12.8613 1.16797 8.29204 3.8877 5.24145C4.32271 4.75353 4.80215 4.30229 5.32056 3.89288C8.56181 1.33313 13.4166 1.33313 23.1263 1.33313H30.8763C40.586 1.33313 45.4408 1.33313 48.682 3.89288C49.2005 4.30229 49.6799 4.75353 50.1149 5.24145C52.5653 7.98996 52.808 11.9713 52.832 19.4165" stroke="white" stroke-width="2" stroke-linecap="round" stroke-linejoin="round"/>
<path d="M1.16797 14.2496H52.8346" stroke="white" stroke-width="2" stroke-linejoin="round"/>
<path d="M52.8339 27.1666L37.3339 42.6666M52.8339 42.6666L37.3339 27.1666" stroke="white" stroke-width="2" stroke-linecap="round"/>
</svg>
