<svg width="55" height="55" viewBox="0 0 55 55" fill="none" xmlns="http://www.w3.org/2000/svg">
<path fill-rule="evenodd" clip-rule="evenodd" d="M26.5835 6.13C24.5368 6.53024 22.6786 8.66095 23.2655 11.2524C23.7296 13.3024 25.7712 15.1086 28.3711 14.5385C30.4194 14.0895 32.197 12.0294 31.6622 9.45471C31.2249 7.3425 29.2086 5.6154 26.5835 6.13ZM9.88087 23.2496C4.20684 23.9812 5.21585 32.2938 10.868 31.7119C13.0509 31.4866 14.815 29.4938 14.5728 27.0015C14.3609 24.8338 12.3193 22.9352 9.88087 23.2496ZM43.8814 23.285C41.7961 23.6751 39.9008 25.567 40.375 28.2073C40.7585 30.3481 42.7496 32.1206 45.3848 31.6783C47.5004 31.3235 49.2779 29.2701 48.7852 26.6214C48.4219 24.6724 46.3417 22.8275 43.8814 23.2866V23.285ZM26.8374 40.3912C20.9901 41.4876 22.7072 49.7969 28.2752 48.8248C33.8585 47.8495 32.1801 39.3872 26.8374 40.3912ZM17.6368 14.594C19.2546 14.108 20.896 14.8479 21.7166 15.6383C23.4387 17.2981 22.5962 21.1021 25.6468 22.5484C27.0712 23.2227 28.6755 23.0209 29.7989 22.2154C32.6964 20.1385 31.0315 17.5874 33.6298 15.3221C34.659 14.4241 36.4062 14.1315 37.9063 14.7722C40.9266 16.0604 41.2209 19.8375 39.2466 21.7647C38.0207 22.9604 37.1277 22.7182 35.303 23.2379C31.8034 24.2334 31.2956 27.7448 32.6762 29.8957C34.4975 32.731 37.7819 31.1015 39.6435 33.6509C41.6683 36.424 39.926 39.7252 37.274 40.413C35.6495 40.8334 33.9274 40.1137 33.1639 39.3065C31.9985 38.0721 32.2861 37.1657 31.6504 35.3999C30.4211 31.9877 27.4209 31.1923 25.0632 32.8C22.3237 34.6667 23.7279 37.9544 21.2424 39.7033C18.4508 41.6676 15.2337 39.9741 14.5442 37.3019C14.1339 35.7127 14.8032 34.0596 15.5919 33.2271C16.6026 32.1609 17.7882 32.203 19.5321 31.7456C23.0384 30.8257 23.6775 27.2756 22.2195 25.0339C20.373 22.1969 17.1542 23.8988 15.2724 21.2568C13.6529 18.9849 14.2415 15.6148 17.6352 14.594H17.6368ZM10.4072 7.95127C6.39808 8.79548 7.59209 14.4847 11.5054 13.817C12.9146 13.5765 14.1389 12.0647 13.8228 10.3443C13.5655 8.94515 12.0772 7.60148 10.4072 7.95295V7.95127ZM43.4458 7.98659C41.7809 8.43224 40.6895 9.76582 41.1217 11.5585C42.0517 15.418 47.8485 14.0659 46.9336 10.2115C46.6175 8.87789 45.1931 7.51908 43.4458 7.98659ZM43.3617 41.1513C39.3458 42.1115 41.0208 47.8293 44.6684 46.9952C46.113 46.6656 47.2986 45.2479 46.9572 43.43C46.6999 42.0577 45.1141 40.7325 43.36 41.1513H43.3617ZM10.2391 41.1462C6.31904 42.1233 7.79725 47.8831 11.5508 46.9901C12.9197 46.6639 14.2449 45.152 13.8127 43.3661C13.473 41.9602 12.057 40.6939 10.2391 41.1462ZM35.6495 0.0742175C37.8172 -0.364705 39.5863 1.24131 39.8739 3.00709C40.708 8.13121 33.3624 9.03428 32.5854 4.41971C32.1818 2.0233 33.7609 0.457644 35.6495 0.0742175ZM3.33404 32.5679C-1.63537 33.1397 -0.702029 40.5879 4.26065 39.9337C6.1206 39.6882 7.7653 37.946 7.42392 35.7076C7.15316 33.9267 5.44288 32.3257 3.33404 32.5679ZM3.15241 15.0564C5.26126 14.6915 7.0304 16.1899 7.38356 17.9489C8.37071 22.878 0.971257 24.2015 0.0698689 19.3767C-0.364008 17.0543 1.29078 15.3793 3.15241 15.0564ZM50.6266 15.043C55.1857 14.224 56.8388 21.2518 51.9602 22.3432C49.7656 22.8343 47.8367 21.1391 47.5391 19.3969C47.1371 17.0408 48.7297 15.3827 50.6266 15.043ZM18.2692 0.0389019C22.8821 -0.593415 24.1854 6.68159 19.2244 7.40304C14.3088 8.11776 13.3401 0.714943 18.2692 0.0389019ZM35.6713 47.5619C37.8929 47.1364 39.5493 48.7677 39.8722 50.4897C40.3061 52.8021 38.7926 54.4955 37.0032 54.8689C32.1364 55.8829 30.601 48.5373 35.6713 47.5619ZM50.2701 32.6453C52.5925 32.0802 54.4189 33.5988 54.7989 35.3494C55.3152 37.7206 53.8286 39.4528 52.0611 39.8648C47.2195 40.9932 45.6152 33.7787 50.2701 32.6453ZM17.7512 47.6123C20.1073 46.9783 21.942 48.6264 22.3389 50.372C23.4555 55.2859 16.1216 56.7725 15.0824 52.0957C14.5896 49.8826 16.0527 48.0681 17.7512 47.6123Z" fill="white"/>
<mask id="mask0_8_1859" style="mask-type:luminance" maskUnits="userSpaceOnUse" x="0" y="0" width="55" height="55">
<path d="M26.5835 6.13C24.5368 6.53024 22.6786 8.66095 23.2655 11.2524C23.7296 13.3024 25.7712 15.1086 28.3711 14.5385C30.4194 14.0895 32.197 12.0294 31.6622 9.45471C31.2249 7.3425 29.2086 5.6154 26.5835 6.13ZM9.88087 23.2496C4.20684 23.9812 5.21585 32.2938 10.868 31.7119C13.0509 31.4866 14.815 29.4938 14.5728 27.0015C14.3609 24.8338 12.3193 22.9352 9.88087 23.2496ZM43.8814 23.285C41.7961 23.6751 39.9008 25.567 40.375 28.2073C40.7585 30.3481 42.7496 32.1206 45.3848 31.6783C47.5004 31.3235 49.2779 29.2701 48.7852 26.6214C48.4219 24.6724 46.3417 22.8275 43.8814 23.2866V23.285ZM26.8374 40.3912C20.9901 41.4876 22.7072 49.7969 28.2752 48.8248C33.8585 47.8495 32.1801 39.3872 26.8374 40.3912ZM17.6368 14.594C19.2546 14.108 20.896 14.8479 21.7166 15.6383C23.4387 17.2981 22.5962 21.1021 25.6468 22.5484C27.0712 23.2227 28.6755 23.0209 29.7989 22.2154C32.6964 20.1385 31.0315 17.5874 33.6298 15.3221C34.659 14.4241 36.4062 14.1315 37.9063 14.7722C40.9266 16.0604 41.2209 19.8375 39.2466 21.7647C38.0207 22.9604 37.1277 22.7182 35.303 23.2379C31.8034 24.2334 31.2956 27.7448 32.6762 29.8957C34.4975 32.731 37.7819 31.1015 39.6435 33.6509C41.6683 36.424 39.926 39.7252 37.274 40.413C35.6495 40.8334 33.9274 40.1137 33.1639 39.3065C31.9985 38.0721 32.2861 37.1657 31.6504 35.3999C30.4211 31.9877 27.4209 31.1923 25.0632 32.8C22.3237 34.6667 23.7279 37.9544 21.2424 39.7033C18.4508 41.6676 15.2337 39.9741 14.5442 37.3019C14.1339 35.7127 14.8032 34.0596 15.5919 33.2271C16.6026 32.1609 17.7882 32.203 19.5321 31.7456C23.0384 30.8257 23.6775 27.2756 22.2195 25.0339C20.373 22.1969 17.1542 23.8988 15.2724 21.2568C13.6529 18.9849 14.2415 15.6148 17.6352 14.594H17.6368ZM10.4072 7.95127C6.39808 8.79548 7.59209 14.4847 11.5054 13.817C12.9146 13.5765 14.1389 12.0647 13.8228 10.3443C13.5655 8.94515 12.0772 7.60148 10.4072 7.95295V7.95127ZM43.4458 7.98659C41.7809 8.43224 40.6895 9.76582 41.1217 11.5585C42.0517 15.418 47.8485 14.0659 46.9336 10.2115C46.6175 8.87789 45.1931 7.51908 43.4458 7.98659ZM43.3617 41.1513C39.3458 42.1115 41.0208 47.8293 44.6684 46.9952C46.113 46.6656 47.2986 45.2479 46.9572 43.43C46.6999 42.0577 45.1141 40.7325 43.36 41.1513H43.3617ZM10.2391 41.1462C6.31904 42.1233 7.79725 47.8831 11.5508 46.9901C12.9197 46.6639 14.2449 45.152 13.8127 43.3661C13.473 41.9602 12.057 40.6939 10.2391 41.1462ZM35.6495 0.0742175C37.8172 -0.364705 39.5863 1.24131 39.8739 3.00709C40.708 8.13121 33.3624 9.03428 32.5854 4.41971C32.1818 2.0233 33.7609 0.457644 35.6495 0.0742175ZM3.33404 32.5679C-1.63537 33.1397 -0.702029 40.5879 4.26065 39.9337C6.1206 39.6882 7.7653 37.946 7.42392 35.7076C7.15316 33.9267 5.44288 32.3257 3.33404 32.5679ZM3.15241 15.0564C5.26126 14.6915 7.0304 16.1899 7.38356 17.9489C8.37071 22.878 0.971257 24.2015 0.0698689 19.3767C-0.364008 17.0543 1.29078 15.3793 3.15241 15.0564ZM50.6266 15.043C55.1857 14.224 56.8388 21.2518 51.9602 22.3432C49.7656 22.8343 47.8367 21.1391 47.5391 19.3969C47.1371 17.0408 48.7297 15.3827 50.6266 15.043ZM18.2692 0.0389019C22.8821 -0.593415 24.1854 6.68159 19.2244 7.40304C14.3088 8.11776 13.3401 0.714943 18.2692 0.0389019ZM35.6713 47.5619C37.8929 47.1364 39.5493 48.7677 39.8722 50.4897C40.3061 52.8021 38.7926 54.4955 37.0032 54.8689C32.1364 55.8829 30.601 48.5373 35.6713 47.5619ZM50.2701 32.6453C52.5925 32.0802 54.4189 33.5988 54.7989 35.3494C55.3152 37.7206 53.8286 39.4528 52.0611 39.8648C47.2195 40.9932 45.6152 33.7787 50.2701 32.6453ZM17.7512 47.6123C20.1073 46.9783 21.942 48.6264 22.3389 50.372C23.4555 55.2859 16.1216 56.7725 15.0824 52.0957C14.5896 49.8826 16.0527 48.0681 17.7512 47.6123Z" fill="white"/>
</mask>
<g mask="url(#mask0_8_1859)">
<path d="M0.322727 -0.593262H-1.63477V56.771H0.322727V-0.593262Z" fill="white"/>
<path d="M0.536291 -0.593262H0.215088V56.771H0.536291V-0.593262Z" fill="white"/>
<path d="M0.750891 -0.593262H0.429688V56.771H0.750891V-0.593262Z" fill="white"/>
<path d="M0.963782 -0.593262H0.642578V56.771H0.963782V-0.593262Z" fill="white"/>
<path d="M1.17863 -0.593262H0.857422V56.771H1.17863V-0.593262Z" fill="white"/>
<path d="M1.39347 -0.593262H1.07227V56.771H1.39347V-0.593262Z" fill="white"/>
<path d="M1.61027 -0.593262H1.28906V56.771H1.61027V-0.593262Z" fill="white"/>
<path d="M1.8212 -0.593262H1.5V56.771H1.8212V-0.593262Z" fill="white"/>
<path d="M2.03605 -0.593262H1.71484V56.771H2.03605V-0.593262Z" fill="white"/>
<path d="M2.25284 -0.593262H1.93164V56.771H2.25284V-0.593262Z" fill="white"/>
<path d="M2.46573 -0.593262H2.14453V56.771H2.46573V-0.593262Z" fill="white"/>
<path d="M2.68058 -0.593262H2.35938V56.771H2.68058V-0.593262Z" fill="white"/>
<path d="M2.89347 -0.593262H2.57227V56.771H2.89347V-0.593262Z" fill="white"/>
<path d="M3.11051 -0.593262H2.78931V56.771H3.11051V-0.593262Z" fill="white"/>
<path d="M3.32511 -0.593262H3.00391V56.771H3.32511V-0.593262Z" fill="white"/>
<path d="M3.538 -0.593262H3.2168V56.771H3.538V-0.593262Z" fill="white"/>
<path d="M3.75284 -0.593262H3.43164V56.771H3.75284V-0.593262Z" fill="white"/>
<path d="M3.96769 -0.593262H3.64648V56.771H3.96769V-0.593262Z" fill="white"/>
<path d="M4.18253 -0.593262H3.86133V56.771H4.18253V-0.593262Z" fill="white"/>
<path d="M4.39738 -0.593262H4.07617V56.771H4.39738V-0.593262Z" fill="white"/>
<path d="M4.61027 -0.593262H4.28906V56.771H4.61027V-0.593262Z" fill="white"/>
<path d="M4.82706 -0.593262H4.50586V56.771H4.82706V-0.593262Z" fill="white"/>
<path d="M5.03995 -0.593262H4.71875V56.771H5.03995V-0.593262Z" fill="white"/>
<path d="M5.2548 -0.593262H4.93359V56.771H5.2548V-0.593262Z" fill="white"/>
<path d="M5.46769 -0.593262H5.14648V56.771H5.46769V-0.593262Z" fill="white"/>
<path d="M5.68448 -0.593262H5.36328V56.771H5.68448V-0.593262Z" fill="white"/>
<path d="M5.89933 -0.593262H5.57812V56.771H5.89933V-0.593262Z" fill="white"/>
<path d="M6.11014 -0.593262H5.78894V56.771H6.11014V-0.593262Z" fill="white"/>
<path d="M6.32706 -0.593262H6.00586V56.771H6.32706V-0.593262Z" fill="white"/>
<path d="M6.54191 -0.593262H6.2207V56.771H6.54191V-0.593262Z" fill="white"/>
<path d="M6.75675 -0.593262H6.43555V56.771H6.75675V-0.593262Z" fill="white"/>
<path d="M6.97159 -0.593262H6.65039V56.771H6.97159V-0.593262Z" fill="white"/>
<path d="M7.18448 -0.593262H6.86328V56.771H7.18448V-0.593262Z" fill="white"/>
<path d="M7.40128 -0.593262H7.08008V56.771H7.40128V-0.593262Z" fill="white"/>
<path d="M7.61417 -0.593262H7.29297V56.771H7.61417V-0.593262Z" fill="white"/>
<path d="M7.82902 -0.593262H7.50781V56.771H7.82902V-0.593262Z" fill="white"/>
<path d="M8.04777 -0.593262H7.72656V56.771H8.04777V-0.593262Z" fill="white"/>
<path d="M8.2587 -0.593262H7.9375V56.771H8.2587V-0.593262Z" fill="white"/>
<path d="M8.47355 -0.593262H8.15234V56.771H8.47355V-0.593262Z" fill="white"/>
<path d="M8.68644 -0.593262H8.36523V56.771H8.68644V-0.593262Z" fill="white"/>
<path d="M8.90311 -0.593262H8.58191V56.771H8.90311V-0.593262Z" fill="white"/>
<path d="M9.11613 -0.593262H8.79492V56.771H9.11613V-0.593262Z" fill="white"/>
<path d="M9.33097 -0.593262H9.00977V56.771H9.33097V-0.593262Z" fill="white"/>
<path d="M9.54581 -0.593262H9.22461V56.771H9.54581V-0.593262Z" fill="white"/>
<path d="M9.76066 -0.593262H9.43945V56.771H9.76066V-0.593262Z" fill="white"/>
<path d="M9.97758 -0.593262H9.65637V56.771H9.97758V-0.593262Z" fill="white"/>
<path d="M10.1884 -0.593262H9.86719V56.771H10.1884V-0.593262Z" fill="white"/>
<path d="M10.4032 -0.593262H10.082V56.771H10.4032V-0.593262Z" fill="white"/>
<path d="M10.62 -0.593262H10.2988V56.771H10.62V-0.593262Z" fill="white"/>
<path d="M10.8329 -0.593262H10.5117V56.771H10.8329V-0.593262Z" fill="white"/>
<path d="M11.0478 -0.593262H10.7266V56.771H11.0478V-0.593262Z" fill="white"/>
<path d="M11.2607 -0.593262H10.9395V56.771H11.2607V-0.593262Z" fill="white"/>
<path d="M11.4773 -0.593262H11.1561V56.771H11.4773V-0.593262Z" fill="white"/>
<path d="M11.6903 -0.593262H11.3691V56.771H11.6903V-0.593262Z" fill="white"/>
<path d="M11.9052 -0.593262H11.584V56.771H11.9052V-0.593262Z" fill="white"/>
<path d="M12.1239 -0.593262H11.8027V56.771H12.1239V-0.593262Z" fill="white"/>
<path d="M12.3349 -0.593262H12.0137V56.771H12.3349V-0.593262Z" fill="white"/>
<path d="M12.5497 -0.593262H12.2285V56.771H12.5497V-0.593262Z" fill="white"/>
<path d="M12.7626 -0.593262H12.4414V56.771H12.7626V-0.593262Z" fill="white"/>
<path d="M12.9775 -0.593262H12.6562V56.771H12.9775V-0.593262Z" fill="white"/>
<path d="M13.1942 -0.593262H12.873V56.771H13.1942V-0.593262Z" fill="white"/>
<path d="M13.4071 -0.593262H13.0859V56.771H13.4071V-0.593262Z" fill="white"/>
<path d="M13.622 -0.593262H13.3008V56.771H13.622V-0.593262Z" fill="white"/>
<path d="M13.8349 -0.593262H13.5137V56.771H13.8349V-0.593262Z" fill="white"/>
<path d="M14.0515 -0.593262H13.7303V56.771H14.0515V-0.593262Z" fill="white"/>
<path d="M14.2646 -0.593262H13.9434V56.771H14.2646V-0.593262Z" fill="white"/>
<path d="M14.4794 -0.593262H14.1582V56.771H14.4794V-0.593262Z" fill="white"/>
<path d="M14.6942 -0.593262H14.373V56.771H14.6942V-0.593262Z" fill="white"/>
<path d="M14.9091 -0.593262H14.5879V56.771H14.9091V-0.593262Z" fill="white"/>
<path d="M15.126 -0.593262H14.8048V56.771H15.126V-0.593262Z" fill="white"/>
<path d="M15.3368 -0.593262H15.0156V56.771H15.3368V-0.593262Z" fill="white"/>
<path d="M15.5517 -0.593262H15.2305V56.771H15.5517V-0.593262Z" fill="white"/>
<path d="M15.7685 -0.593262H15.4473V56.771H15.7685V-0.593262Z" fill="white"/>
<path d="M15.9814 -0.593262H15.6602V56.771H15.9814V-0.593262Z" fill="white"/>
<path d="M16.1962 -0.593262H15.875V56.771H16.1962V-0.593262Z" fill="white"/>
<path d="M16.4091 -0.593262H16.0879V56.771H16.4091V-0.593262Z" fill="white"/>
<path d="M16.6239 -0.593262H16.3027V56.771H16.6239V-0.593262Z" fill="white"/>
<path d="M16.8388 -0.593262H16.5176V56.771H16.8388V-0.593262Z" fill="white"/>
<path d="M17.0536 -0.593262H16.7324V56.771H17.0536V-0.593262Z" fill="white"/>
<path d="M17.2685 -0.593262H16.9473V56.771H17.2685V-0.593262Z" fill="white"/>
<path d="M17.4833 -0.593262H17.1621V56.771H17.4833V-0.593262Z" fill="white"/>
<path d="M17.6982 -0.593262H17.377V56.771H17.6982V-0.593262Z" fill="white"/>
<path d="M17.911 -0.593262H17.5898V56.771H17.911V-0.593262Z" fill="white"/>
<path d="M18.128 -0.593262H17.8068V56.771H18.128V-0.593262Z" fill="white"/>
<path d="M18.3427 -0.593262H18.0215V56.771H18.3427V-0.593262Z" fill="white"/>
<path d="M18.5614 -0.593262H18.2402V56.771H18.5614V-0.593262Z" fill="white"/>
<path d="M18.7704 -0.593262H18.4492V56.771H18.7704V-0.593262Z" fill="white"/>
<path d="M18.9853 -0.593262H18.6641V56.771H18.9853V-0.593262Z" fill="white"/>
<path d="M19.2 -0.593262H18.8788V56.771H19.2V-0.593262Z" fill="white"/>
<path d="M19.413 -0.593262H19.0918V56.771H19.413V-0.593262Z" fill="white"/>
<path d="M19.6278 -0.593262H19.3066V56.771H19.6278V-0.593262Z" fill="white"/>
<path d="M19.8446 -0.593262H19.5234V56.771H19.8446V-0.593262Z" fill="white"/>
<path d="M20.0575 -0.593262H19.7363V56.771H20.0575V-0.593262Z" fill="white"/>
<path d="M20.2724 -0.593262H19.9512V56.771H20.2724V-0.593262Z" fill="white"/>
<path d="M20.4911 -0.593262H20.1699V56.771H20.4911V-0.593262Z" fill="white"/>
<path d="M20.7023 -0.593262H20.3811V56.771H20.7023V-0.593262Z" fill="white"/>
<path d="M20.9169 -0.593262H20.5957V56.771H20.9169V-0.593262Z" fill="white"/>
<path d="M21.1298 -0.593262H20.8086V56.771H21.1298V-0.593262Z" fill="white"/>
<path d="M21.3446 -0.593262H21.0234V56.771H21.3446V-0.593262Z" fill="white"/>
<path d="M21.5595 -0.593262H21.2383V56.771H21.5595V-0.593262Z" fill="white"/>
<path d="M21.7742 -0.593262H21.453V56.771H21.7742V-0.593262Z" fill="white"/>
<path d="M21.9889 -0.593262H21.666V56.771H21.9889V-0.593262Z" fill="white"/>
<path d="M22.2021 -0.593262H21.8809V56.771H22.2021V-0.593262Z" fill="white"/>
<path d="M22.4189 -0.593262H22.0977V56.771H22.4189V-0.593262Z" fill="white"/>
<path d="M22.6318 -0.593262H22.3105V56.771H22.6318V-0.593262Z" fill="white"/>
<path d="M22.8466 -0.593262H22.5254V56.771H22.8466V-0.593262Z" fill="white"/>
<path d="M23.0595 -0.593262H22.7383V56.771H23.0595V-0.593262Z" fill="white"/>
<path d="M23.2765 -0.593262H22.9553V56.771H23.2765V-0.593262Z" fill="white"/>
<path d="M23.4911 -0.593262H23.1699V56.771H23.4911V-0.593262Z" fill="white"/>
<path d="M23.704 -0.593262H23.3828V56.771H23.704V-0.593262Z" fill="white"/>
<path d="M23.9189 -0.593262H23.5977V56.771H23.9189V-0.593262Z" fill="white"/>
<path d="M24.1337 -0.593262H23.8125V56.771H24.1337V-0.593262Z" fill="white"/>
<path d="M24.3484 -0.593262H24.0272V56.771H24.3484V-0.593262Z" fill="white"/>
<path d="M24.5614 -0.593262H24.2402V56.771H24.5614V-0.593262Z" fill="white"/>
<path d="M24.7763 -0.593262H24.4551V56.771H24.7763V-0.593262Z" fill="white"/>
<path d="M24.9911 -0.593262H24.6699V56.771H24.9911V-0.593262Z" fill="white"/>
<path d="M25.206 -0.593262H24.8848V56.771H25.206V-0.593262Z" fill="white"/>
<path d="M25.4208 -0.593262H25.0996V56.771H25.4208V-0.593262Z" fill="white"/>
<path d="M25.6337 -0.593262H25.3125V56.771H25.6337V-0.593262Z" fill="white"/>
<path d="M25.8507 -0.593262H25.5295V56.771H25.8507V-0.593262Z" fill="white"/>
<path d="M26.0653 -0.593262H25.7441V56.771H26.0653V-0.593262Z" fill="white"/>
<path d="M26.2782 -0.593262H25.957V56.771H26.2782V-0.593262Z" fill="white"/>
<path d="M26.4966 -0.593262H26.1737V56.771H26.4966V-0.593262Z" fill="white"/>
<path d="M26.7079 -0.593262H26.3867V56.771H26.7079V-0.593262Z" fill="white"/>
<path d="M26.9226 -0.593262H26.6014V56.771H26.9226V-0.593262Z" fill="white"/>
<path d="M27.1357 -0.593262H26.8145V56.771H27.1357V-0.593262Z" fill="white"/>
<path d="M27.3525 -0.593262H27.0312V56.771H27.3525V-0.593262Z" fill="white"/>
<path d="M27.5673 -0.593262H27.2461V56.771H27.5673V-0.593262Z" fill="white"/>
<path d="M27.7819 -0.593262H27.459V56.771H27.7819V-0.593262Z" fill="white"/>
<path d="M27.995 -0.593262H27.6738V56.771H27.995V-0.593262Z" fill="white"/>
<path d="M28.2118 -0.593262H27.8906V56.771H28.2118V-0.593262Z" fill="white"/>
<path d="M28.425 -0.593262H28.1038V56.771H28.425V-0.593262Z" fill="white"/>
<path d="M28.6396 -0.593262H28.3184V56.771H28.6396V-0.593262Z" fill="white"/>
<path d="M28.8525 -0.593262H28.5312V56.771H28.8525V-0.593262Z" fill="white"/>
<path d="M29.0673 -0.593262H28.7461V56.771H29.0673V-0.593262Z" fill="white"/>
<path d="M29.2821 -0.593262H28.9609V56.771H29.2821V-0.593262Z" fill="white"/>
<path d="M29.4969 -0.593262H29.1757V56.771H29.4969V-0.593262Z" fill="white"/>
<path d="M29.7116 -0.593262H29.3887V56.771H29.7116V-0.593262Z" fill="white"/>
<path d="M29.9267 -0.593262H29.6055V56.771H29.9267V-0.593262Z" fill="white"/>
<path d="M30.1415 -0.593262H29.8203V56.771H30.1415V-0.593262Z" fill="white"/>
<path d="M30.3544 -0.593262H30.0332V56.771H30.3544V-0.593262Z" fill="white"/>
<path d="M30.5693 -0.593262H30.248V56.771H30.5693V-0.593262Z" fill="white"/>
<path d="M30.786 -0.593262H30.4648V56.771H30.786V-0.593262Z" fill="white"/>
<path d="M30.997 -0.593262H30.6758V56.771H30.997V-0.593262Z" fill="white"/>
<path d="M31.2138 -0.593262H30.8926V56.771H31.2138V-0.593262Z" fill="white"/>
<path d="M31.4267 -0.593262H31.1055V56.771H31.4267V-0.593262Z" fill="white"/>
<path d="M31.6433 -0.593262H31.3221V56.771H31.6433V-0.593262Z" fill="white"/>
<path d="M31.8564 -0.593262H31.5352V56.771H31.8564V-0.593262Z" fill="white"/>
<path d="M32.0711 -0.593262H31.7499V56.771H32.0711V-0.593262Z" fill="white"/>
<path d="M32.2858 -0.593262H31.9629V56.771H32.2858V-0.593262Z" fill="white"/>
<path d="M32.5009 -0.593262H32.1797V56.771H32.5009V-0.593262Z" fill="white"/>
<path d="M32.7157 -0.593262H32.3945V56.771H32.7157V-0.593262Z" fill="white"/>
<path d="M32.9345 -0.593262H32.6133V56.771H32.9345V-0.593262Z" fill="white"/>
<path d="M33.1435 -0.593262H32.8223V56.771H33.1435V-0.593262Z" fill="white"/>
<path d="M33.3603 -0.593262H33.0391V56.771H33.3603V-0.593262Z" fill="white"/>
<path d="M33.5751 -0.593262H33.2522V56.771H33.5751V-0.593262Z" fill="white"/>
<path d="M33.788 -0.593262H33.4668V56.771H33.788V-0.593262Z" fill="white"/>
<path d="M34.0009 -0.593262H33.6797V56.771H34.0009V-0.593262Z" fill="white"/>
<path d="M34.2176 -0.593262H33.8964V56.771H34.2176V-0.593262Z" fill="white"/>
<path d="M34.4306 -0.593262H34.1094V56.771H34.4306V-0.593262Z" fill="white"/>
<path d="M34.6453 -0.593262H34.3241V56.771H34.6453V-0.593262Z" fill="white"/>
<path d="M34.8583 -0.593262H34.5371V56.771H34.8583V-0.593262Z" fill="white"/>
<path d="M35.0751 -0.593262H34.7539V56.771H35.0751V-0.593262Z" fill="white"/>
<path d="M35.29 -0.593262H34.9688V56.771H35.29V-0.593262Z" fill="white"/>
<path d="M35.5045 -0.593262H35.1816V56.771H35.5045V-0.593262Z" fill="white"/>
<path d="M35.7198 -0.593262H35.3986V56.771H35.7198V-0.593262Z" fill="white"/>
<path d="M35.9345 -0.593262H35.6133V56.771H35.9345V-0.593262Z" fill="white"/>
<path d="M36.1476 -0.593262H35.8264V56.771H36.1476V-0.593262Z" fill="white"/>
<path d="M36.3622 -0.593262H36.041V56.771H36.3622V-0.593262Z" fill="white"/>
<path d="M36.5771 -0.593262H36.2559V56.771H36.5771V-0.593262Z" fill="white"/>
<path d="M36.7918 -0.593262H36.4706V56.771H36.7918V-0.593262Z" fill="white"/>
<path d="M37.0048 -0.593262H36.6836V56.771H37.0048V-0.593262Z" fill="white"/>
<path d="M37.2196 -0.593262H36.8984V56.771H37.2196V-0.593262Z" fill="white"/>
<path d="M37.4325 -0.593262H37.1113V56.771H37.4325V-0.593262Z" fill="white"/>
<path d="M37.6493 -0.593262H37.3281V56.771H37.6493V-0.593262Z" fill="white"/>
<path d="M37.8642 -0.593262H37.543V56.771H37.8642V-0.593262Z" fill="white"/>
<path d="M38.0787 -0.593262H37.7559V56.771H38.0787V-0.593262Z" fill="white"/>
<path d="M38.294 -0.593262H37.9728V56.771H38.294V-0.593262Z" fill="white"/>
<path d="M38.5048 -0.593262H38.1836V56.771H38.5048V-0.593262Z" fill="white"/>
<path d="M38.7218 -0.593262H38.4006V56.771H38.7218V-0.593262Z" fill="white"/>
<path d="M38.9364 -0.593262H38.6152V56.771H38.9364V-0.593262Z" fill="white"/>
<path d="M39.1513 -0.593262H38.8301V56.771H39.1513V-0.593262Z" fill="white"/>
<path d="M39.3677 -0.593262H39.0448V56.771H39.3677V-0.593262Z" fill="white"/>
<path d="M39.579 -0.593262H39.2578V56.771H39.579V-0.593262Z" fill="white"/>
<path d="M39.7939 -0.593262H39.4727V56.771H39.7939V-0.593262Z" fill="white"/>
<path d="M40.0107 -0.593262H39.6895V56.771H40.0107V-0.593262Z" fill="white"/>
<path d="M40.2235 -0.593262H39.9023V56.771H40.2235V-0.593262Z" fill="white"/>
<path d="M40.4364 -0.593262H40.1152V56.771H40.4364V-0.593262Z" fill="white"/>
<path d="M40.6513 -0.593262H40.3301V56.771H40.6513V-0.593262Z" fill="white"/>
<path d="M40.8682 -0.593262H40.547V56.771H40.8682V-0.593262Z" fill="white"/>
<path d="M41.0829 -0.593262H40.7617V56.771H41.0829V-0.593262Z" fill="white"/>
<path d="M41.2977 -0.593262H40.9749V56.771H41.2977V-0.593262Z" fill="white"/>
<path d="M41.5107 -0.593262H41.1895V56.771H41.5107V-0.593262Z" fill="white"/>
<path d="M41.7255 -0.593262H41.4043V56.771H41.7255V-0.593262Z" fill="white"/>
<path d="M41.9402 -0.593262H41.619V56.771H41.9402V-0.593262Z" fill="white"/>
<path d="M42.1532 -0.593262H41.832V56.771H42.1532V-0.593262Z" fill="white"/>
<path d="M42.3681 -0.593262H42.0469V56.771H42.3681V-0.593262Z" fill="white"/>
<path d="M42.5849 -0.593262H42.2637V56.771H42.5849V-0.593262Z" fill="white"/>
<path d="M42.7978 -0.593262H42.4766V56.771H42.7978V-0.593262Z" fill="white"/>
<path d="M43.0126 -0.593262H42.6914V56.771H43.0126V-0.593262Z" fill="white"/>
<path d="M43.2255 -0.593262H42.9043V56.771H43.2255V-0.593262Z" fill="white"/>
<path d="M43.4403 -0.593262H43.1191V56.771H43.4403V-0.593262Z" fill="white"/>
<path d="M43.6571 -0.593262H43.3359V56.771H43.6571V-0.593262Z" fill="white"/>
<path d="M43.872 -0.593262H43.5491V56.771H43.872V-0.593262Z" fill="white"/>
<path d="M44.0866 -0.593262H43.7654V56.771H44.0866V-0.593262Z" fill="white"/>
<path d="M44.2997 -0.593262H43.9785V56.771H44.2997V-0.593262Z" fill="white"/>
<path d="M44.5144 -0.593262H44.1932V56.771H44.5144V-0.593262Z" fill="white"/>
<path d="M44.7275 -0.593262H44.4062V56.771H44.7275V-0.593262Z" fill="white"/>
<path d="M44.9443 -0.593262H44.623V56.771H44.9443V-0.593262Z" fill="white"/>
<path d="M45.1591 -0.593262H44.8379V56.771H45.1591V-0.593262Z" fill="white"/>
<path d="M45.372 -0.593262H45.0508V56.771H45.372V-0.593262Z" fill="white"/>
<path d="M45.5868 -0.593262H45.2656V56.771H45.5868V-0.593262Z" fill="white"/>
<path d="M45.8036 -0.593262H45.4824V56.771H45.8036V-0.593262Z" fill="white"/>
<path d="M46.0166 -0.593262H45.6954V56.771H46.0166V-0.593262Z" fill="white"/>
<path d="M46.2314 -0.593262H45.9102V56.771H46.2314V-0.593262Z" fill="white"/>
<path d="M46.4445 -0.593262H46.1233V56.771H46.4445V-0.593262Z" fill="white"/>
<path d="M46.6608 -0.593262H46.3396V56.771H46.6608V-0.593262Z" fill="white"/>
<path d="M46.872 -0.593262H46.5508V56.771H46.872V-0.593262Z" fill="white"/>
<path d="M47.0903 -0.593262H46.7675V56.771H47.0903V-0.593262Z" fill="white"/>
<path d="M47.3017 -0.593262H46.9805V56.771H47.3017V-0.593262Z" fill="white"/>
<path d="M47.5185 -0.593262H47.1973V56.771H47.5185V-0.593262Z" fill="white"/>
<path d="M47.7333 -0.593262H47.4121V56.771H47.7333V-0.593262Z" fill="white"/>
<path d="M47.9442 -0.593262H47.623V56.771H47.9442V-0.593262Z" fill="white"/>
<path d="M48.161 -0.593262H47.8398V56.771H48.161V-0.593262Z" fill="white"/>
<path d="M48.3778 -0.593262H48.0566V56.771H48.3778V-0.593262Z" fill="white"/>
<path d="M48.5909 -0.593262H48.2697V56.771H48.5909V-0.593262Z" fill="white"/>
<path d="M48.8056 -0.593262H48.4844V56.771H48.8056V-0.593262Z" fill="white"/>
<path d="M49.0185 -0.593262H48.6973V56.771H49.0185V-0.593262Z" fill="white"/>
<path d="M49.235 -0.593262H48.9138V56.771H49.235V-0.593262Z" fill="white"/>
<path d="M49.4482 -0.593262H49.127V56.771H49.4482V-0.593262Z" fill="white"/>
<path d="M49.6629 -0.593262H49.3417V56.771H49.6629V-0.593262Z" fill="white"/>
<path d="M49.8759 -0.593262H49.5547V56.771H49.8759V-0.593262Z" fill="white"/>
<path d="M50.0927 -0.593262H49.7715V56.771H50.0927V-0.593262Z" fill="white"/>
<path d="M50.3075 -0.593262H49.9863V56.771H50.3075V-0.593262Z" fill="white"/>
<path d="M50.5204 -0.593262H50.1992V56.771H50.5204V-0.593262Z" fill="white"/>
<path d="M50.7353 -0.593262H50.4141V56.771H50.7353V-0.593262Z" fill="white"/>
<path d="M50.9482 -0.593262H50.627V56.771H50.9482V-0.593262Z" fill="white"/>
<path d="M51.1651 -0.593262H50.8439V56.771H51.1651V-0.593262Z" fill="white"/>
<path d="M51.3798 -0.593262H51.0586V56.771H51.3798V-0.593262Z" fill="white"/>
<path d="M51.5927 -0.593262H51.2715V56.771H51.5927V-0.593262Z" fill="white"/>
<path d="M51.8092 -0.593262H51.488V56.771H51.8092V-0.593262Z" fill="white"/>
<path d="M52.0204 -0.593262H51.6992V56.771H52.0204V-0.593262Z" fill="white"/>
<path d="M52.2371 -0.593262H51.9159V56.771H52.2371V-0.593262Z" fill="white"/>
<path d="M52.454 -0.593262H52.1328V56.771H52.454V-0.593262Z" fill="white"/>
<path d="M52.6669 -0.593262H52.3457V56.771H52.6669V-0.593262Z" fill="white"/>
<path d="M52.8798 -0.593262H52.5586V56.771H52.8798V-0.593262Z" fill="white"/>
<path d="M53.0946 -0.593262H52.7734V56.771H53.0946V-0.593262Z" fill="white"/>
<path d="M53.3116 -0.593262H52.9904V56.771H53.3116V-0.593262Z" fill="white"/>
<path d="M53.5263 -0.593262H53.2051V56.771H53.5263V-0.593262Z" fill="white"/>
<path d="M53.7393 -0.593262H53.4181V56.771H53.7393V-0.593262Z" fill="white"/>
<path d="M53.954 -0.593262H53.6328V56.771H53.954V-0.593262Z" fill="white"/>
<path d="M54.1689 -0.593262H53.8477V56.771H54.1689V-0.593262Z" fill="white"/>
<path d="M54.3835 -0.593262H54.0623V56.771H54.3835V-0.593262Z" fill="white"/>
<path d="M54.5966 -0.593262H54.2754V56.771H54.5966V-0.593262Z" fill="white"/>
<path d="M54.8113 -0.593262H54.4901V56.771H54.8113V-0.593262Z" fill="white"/>
<path d="M56.8411 -0.593262H54.707V56.771H56.8411V-0.593262Z" fill="white"/>
</g>
</svg>
