<svg width="44" height="42" viewBox="0 0 44 42" fill="none" xmlns="http://www.w3.org/2000/svg">
<path d="M30.3379 23.1251C30.3379 24.851 31.737 26.2501 33.4629 26.2501C35.1888 26.2501 36.5879 24.851 36.5879 23.1251C36.5879 21.3992 35.1888 20.0001 33.4629 20.0001C31.737 20.0001 30.3379 21.3992 30.3379 23.1251Z" stroke="white" stroke-width="2"/>
<path d="M17.8353 26.2501L3.25195 40.8335M17.8353 40.8335L3.25195 26.2501" stroke="white" stroke-width="2" stroke-linecap="round"/>
<path d="M17.8385 9.58346H30.3385C36.2311 9.58346 39.1774 9.58346 41.008 11.414C42.8385 13.2446 42.8385 16.1909 42.8385 22.0835V26.2501C42.8385 32.1427 42.8385 35.089 41.008 36.9195C39.1774 38.7501 36.2311 38.7501 30.3385 38.7501H25.1282M34.5052 9.58346C34.5052 7.64601 34.5052 6.67729 34.2922 5.8825C33.7143 3.72568 32.0297 2.04101 29.8728 1.46309C29.078 1.25012 28.1093 1.25012 26.1719 1.25012H17.8385C9.9818 1.25012 6.05343 1.25012 3.61265 3.6909C1.17188 6.13168 1.17188 10.06 1.17188 17.9168V20.0001" stroke="white" stroke-width="2" stroke-linecap="round"/>
</svg>
