<svg width="44" height="40" viewBox="0 0 44 40" fill="none" xmlns="http://www.w3.org/2000/svg">
<path d="M40.3369 17.7648C40.6586 17.6025 40.9384 17.3979 41.1868 17.14C42.3888 15.8924 42.3888 13.8845 42.3888 9.86854C42.3888 5.8526 42.3888 3.84464 41.1868 2.59705C39.9849 1.34946 38.0503 1.34946 34.1812 1.34946L9.55814 1.34946C5.689 1.34946 3.75444 1.34946 2.55245 2.59705C1.35046 3.84464 1.35046 5.8526 1.35046 9.86854C1.35046 13.8845 1.35046 15.8924 2.55245 17.14C2.80092 17.3979 3.08069 17.6025 3.40238 17.7648" stroke="white" stroke-width="1.51872" stroke-linecap="round"/>
<path d="M36.0994 23.8082L34.724 16.3219C34.1299 13.0884 33.8328 11.4716 32.6565 10.5143C31.4801 9.55709 29.7903 9.55709 26.4107 9.55709H17.3283C13.9487 9.55709 12.2589 9.55709 11.0825 10.5143C9.90616 11.4716 9.60911 13.0884 9.015 16.3219L7.63955 23.8082C6.40639 30.52 5.78982 33.8759 7.68846 36.0799C9.5871 38.2839 13.0946 38.2839 20.1095 38.2839H23.6295C30.6444 38.2839 34.1519 38.2839 36.0505 36.0799C37.9492 33.8759 37.3326 30.52 36.0994 23.8082Z" stroke="white" stroke-width="1.51872" stroke-linecap="round"/>
<path d="M19.8173 9.55709L16.7394 38.2839" stroke="white" stroke-width="1.51872"/>
<path d="M28.025 28.0245L28.025 30.0764" stroke="white" stroke-width="1.51872" stroke-miterlimit="10" stroke-linecap="round" stroke-linejoin="round"/>
</svg>
